<?xml version="1.0" standalone="no"?>
<!DOCTYPE svg PUBLIC "-//W3C//DTD SVG 20010904//EN"
 "http://www.w3.org/TR/2001/REC-SVG-20010904/DTD/svg10.dtd">
<svg version="1.0" xmlns="http://www.w3.org/2000/svg"
 width="512.000000pt" height="512.000000pt" viewBox="0 0 512.000000 512.000000"
 preserveAspectRatio="xMidYMid meet">

<g transform="translate(0.000000,512.000000) scale(0.100000,-0.100000)" fill="#ffffff" stroke="none">
<path d="M2552 5098 c-40 -18 -94 -63 -227 -192 l-176 -168 -74 71 c-41 38
-94 80 -117 92 -160 82 -330 59 -463 -63 -62 -56 -111 -146 -121 -218 l-6 -48
-56 20 c-36 13 -81 19 -131 19 -159 0 -291 -83 -362 -226 -39 -79 -50 -200
-25 -279 8 -27 13 -53 11 -56 -3 -4 -27 -10 -54 -13 -118 -14 -237 -105 -294
-224 -30 -63 -32 -76 -32 -173 0 -98 2 -109 31 -167 l31 -61 -43 -7 c-114 -17
-250 -128 -295 -242 -19 -46 -23 -77 -23 -153 0 -169 8 -182 350 -533 164
-168 191 -191 253 -220 l70 -33 -47 -48 c-26 -27 -203 -193 -395 -369 -212
-196 -350 -330 -353 -344 -13 -52 37 -103 88 -90 27 8 732 653 797 730 24 28
55 69 69 89 13 21 32 38 42 38 39 0 141 63 193 120 67 72 98 146 105 251 l4
77 82 4 c137 7 256 77 324 190 35 59 67 185 58 229 l-5 27 92 4 c76 3 103 9
157 34 137 65 222 190 228 339 l4 80 83 1 c70 1 92 5 148 32 152 71 238 202
238 362 0 87 -18 155 -56 212 l-27 40 49 52 c388 405 533 551 567 568 53 27
147 28 207 1 90 -40 148 -127 149 -222 0 -85 -18 -127 -86 -202 -83 -90 -97
-113 -89 -141 12 -39 36 -58 73 -58 32 0 46 12 155 126 66 69 140 136 163 150
128 75 305 11 359 -129 21 -56 17 -144 -9 -199 -10 -21 -81 -103 -157 -182
-140 -146 -151 -164 -133 -211 10 -25 63 -45 91 -34 12 4 55 43 95 84 86 92
139 124 210 132 107 11 202 -41 251 -137 24 -47 28 -64 25 -120 -2 -36 -12
-81 -21 -101 -10 -19 -67 -88 -127 -152 -120 -128 -132 -153 -87 -195 31 -29
72 -28 109 3 91 77 201 92 296 40 28 -15 63 -43 77 -61 68 -89 73 -219 13
-300 -13 -17 -201 -215 -418 -440 -643 -665 -583 -600 -576 -637 8 -41 23 -55
65 -63 34 -7 37 -5 203 167 l169 174 382 -388 c325 -330 386 -388 410 -387 36
0 77 41 77 76 0 29 -32 63 -534 571 l-229 232 69 75 c38 41 167 177 287 301
267 276 282 301 282 460 0 92 -3 106 -32 167 -54 115 -168 206 -282 226 -48 8
-47 6 -12 82 23 48 26 68 26 160 0 98 -2 109 -33 172 -55 113 -162 195 -288
220 -33 7 -60 12 -61 13 -1 0 5 25 13 55 64 248 -106 489 -358 506 -68 5 -95
1 -194 -31 -19 -6 -22 -2 -27 34 -8 64 -61 165 -112 216 -54 54 -149 102 -229
115 -91 15 -206 -10 -276 -60 l-29 -20 -183 86 c-159 75 -192 87 -248 90 -52
4 -76 0 -118 -18z m285 -200 l153 -72 -92 -95 c-431 -448 -428 -446 -578 -446
-105 0 -154 17 -217 78 -59 56 -59 56 223 332 141 137 266 255 278 262 40 23
80 13 233 -59z m-981 -115 c35 -12 69 -36 118 -84 l69 -68 -47 -51 c-56 -59
-76 -103 -76 -162 1 -152 189 -288 399 -288 43 0 100 7 127 15 45 14 50 13 63
-3 54 -69 68 -191 30 -269 -43 -89 -159 -153 -256 -139 -70 9 -115 39 -225
151 -112 114 -132 123 -182 84 -50 -39 -38 -68 79 -195 57 -62 111 -130 120
-150 21 -50 19 -149 -4 -199 -23 -51 -96 -119 -145 -135 -49 -16 -151 -9 -199
14 -43 21 -728 724 -765 786 -29 49 -39 134 -22 195 16 59 86 137 141 159 57
23 147 22 201 -2 29 -13 93 -70 203 -181 87 -89 170 -164 183 -168 48 -12 101
44 86 91 -4 11 -49 65 -101 118 -108 113 -132 157 -133 244 0 177 167 295 336
237z m-931 -913 c26 -11 96 -74 200 -181 496 -507 489 -497 489 -609 0 -74
-23 -127 -75 -179 -46 -46 -86 -63 -161 -69 -115 -8 -130 3 -463 348 -323 335
-345 365 -345 464 1 186 182 302 355 226z m-321 -621 c34 -10 77 -48 264 -238
123 -124 235 -245 249 -269 58 -98 36 -233 -53 -311 -50 -44 -100 -61 -175
-61 -92 1 -117 19 -353 261 -241 247 -266 283 -266 379 1 172 161 286 334 239z"/>
<path d="M3497 1694 c-49 -25 -164 -70 -255 -100 -274 -90 -460 -191 -657
-356 -104 -86 -1065 -1104 -1079 -1142 -19 -51 33 -106 87 -92 15 3 211 204
506 518 265 282 486 514 490 516 4 1 212 -212 462 -475 250 -262 472 -497 495
-520 46 -49 77 -55 118 -22 19 15 26 30 26 54 0 31 -41 77 -487 546 -269 281
-488 517 -488 523 0 21 163 128 300 196 83 41 204 90 299 121 164 53 318 123
351 159 42 46 8 121 -54 119 -14 0 -66 -20 -114 -45z"/>
</g>
</svg>
